<svg height="512pt" viewBox="0 0 512 512.003" width="512pt" xmlns="http://www.w3.org/2000/svg"><g fill-rule="evenodd"><path d="m502 197.933594h-29.183594c-5.070312-18.972656-12.601562-37.132813-22.464844-54.164063l20.660157-20.65625c3.902343-3.90625 3.902343-10.238281 0-14.144531l-67.980469-67.976562c-3.90625-3.90625-10.234375-3.90625-14.144531 0l-20.65625 20.65625c-17.035157-9.863282-35.191407-17.394532-54.160157-22.460938v-29.1875c0-5.523438-4.480468-10-10-10h-96.136718c-5.523438 0-10 4.476562-10 10v29.1875c-18.972656 5.066406-37.132813 12.597656-54.164063 22.460938l-20.65625-20.65625c-3.90625-3.90625-10.234375-3.90625-14.140625 0l-67.980468 67.976562c-3.90625 3.90625-3.90625 10.238281 0 14.144531l20.660156 20.65625c-9.871094 17.042969-17.402344 35.203125-22.464844 54.164063h-29.1875c-5.519531 0-10 4.476562-10 10v96.136718c0 5.523438 4.480469 10 10 10h29.1875c5.066406 18.96875 12.601562 37.128907 22.460938 54.160157l-20.65625 20.660156c-3.90625 3.902344-3.90625 10.234375 0 14.140625l67.980468 67.980469c3.90625 3.902343 10.234375 3.902343 14.140625 0l20.65625-20.660157c17.046875 9.871094 35.199219 17.402344 54.164063 22.464844v29.183594c0 5.523438 4.476562 10 10 10h8.066406c5.523438 0 10-4.476562 10-10 0-4.863281-3.46875-8.914062-8.066406-9.8125v-27.195312c0-4.664063-3.222656-8.707032-7.765625-9.746094-22.183594-5.082032-43.253907-13.816406-62.621094-25.96875-3.953125-2.476563-9.089844-1.898438-12.386719 1.398437l-19.117187 19.117188-53.835938-53.835938 19.117188-19.117187c3.296875-3.296875 3.878906-8.4375 1.398437-12.386719-12.144531-19.351563-20.878906-40.421875-25.96875-62.621094-1.042968-4.542969-5.085937-7.765625-9.746094-7.765625h-27.007812v-76.136718h27.007812c4.664063 0 8.707032-3.222657 9.746094-7.769532 5.082032-22.179687 13.820313-43.25 25.96875-62.621094 2.480469-3.949218 1.898438-9.085937-1.398437-12.382812l-19.117188-19.121094 53.835938-53.835937 19.117187 19.121093c3.300782 3.296876 8.4375 3.875 12.386719 1.398438 19.355469-12.144531 40.421875-20.878906 62.621094-25.96875 4.546875-1.042969 7.765625-5.085938 7.765625-9.746094v-27.003906h76.136718v27.007812c0 4.660157 3.222657 8.707032 7.765626 9.746094 22.195312 5.085938 43.261718 13.824219 62.621093 25.96875 3.953125 2.476563 9.089844 1.898438 12.386719-1.398437l19.117188-19.121094 53.839843 53.835937-19.121093 19.121094c-3.296876 3.296875-3.878907 8.4375-1.398438 12.386719 12.144531 19.351563 20.882812 40.421875 25.96875 62.621094 1.042969 4.542969 5.085938 7.765625 9.746094 7.765625h27.003906v76.136718h-27.003906c-4.664063 0-8.707032 3.222657-9.75 7.769532-5.078125 22.179687-13.816406 43.25-25.96875 62.617187-2.476563 3.949219-1.894532 9.089844 1.398437 12.386719l19.121094 19.117188-53.835937 53.835937-19.121094-19.117187c-3.296875-3.296876-8.433594-3.875-12.382813-1.398438-19.355469 12.144531-40.425781 20.878906-62.625 25.96875-4.542969 1.039062-7.765625 5.085938-7.765625 9.746094v27.191406c-4.597656.902344-8.066406 4.953125-8.066406 9.816406 0 5.523438 4.476562 10 10 10h8.066406c5.523438 0 10-4.476562 10-10v-29.1875c18.972656-5.066406 37.132813-12.597656 54.164063-22.460937l20.65625 20.65625c3.90625 3.90625 10.238281 3.90625 14.144531 0l67.976562-67.980469c3.90625-3.902344 3.90625-10.234375 0-14.140625l-20.65625-20.65625c9.871094-17.042969 17.398438-35.203125 22.464844-54.164063h29.183594c5.523438 0 10-4.476562 10-10v-96.136718c0-5.523438-4.476562-10-10-10zm0 0"/><path d="m419.230469 256c0-90.003906-73.226563-163.226562-163.226563-163.226562-90.003906 0-163.230468 73.222656-163.230468 163.226562s73.226562 163.226562 163.230468 163.226562c90 0 163.226563-73.222656 163.226563-163.226562zm-182.953125 141.863281c-.1875-.167969-.375-.332031-.578125-.484375-20.824219-15.746094-35.886719-37.621094-45.101563-65.402344 16.890625-6.96875 35.230469-11.050781 54.609375-12.085937v78.929687c-3.003906-.222656-5.980469-.546874-8.929687-.957031zm-.578125-283.242187c.203125-.152344.386719-.316406.574219-.480469 2.953124-.410156 5.929687-.738281 8.933593-.960937v78.929687c-19.378906-1.035156-37.71875-5.113281-54.609375-12.085937 9.214844-27.78125 24.277344-49.65625 45.101563-65.402344zm38.878906 0c20.835937 15.757812 35.902344 37.648437 45.117187 65.453125-16.859374 6.945312-35.207031 11.011719-54.628906 12.039062v-79.042969c2.902344.183594 5.78125.445313 8.632813.796876.277343.265624.566406.519531.878906.753906zm-.003906 282.757812c-.3125.234375-.601563.492188-.878907.757813-2.851562.351562-5.730468.613281-8.628906.796875v-79.042969c19.421875 1.027344 37.769532 5.089844 54.628906 12.035156-9.214843 27.804688-24.285156 49.699219-45.121093 65.453125zm-9.507813-97.273437v-34.226563h65.308594c-.507812 16.890625-2.324219 32.5-5.445312 46.816406-18.566407-7.332031-38.660157-11.578124-59.863282-12.589843zm0-53.984375v-34.226563c21.199219-1.007812 41.296875-5.257812 59.859375-12.589843 3.125 14.316406 4.941407 29.929687 5.449219 46.816406zm-19.859375-34.230469v34.230469h-65.308593c.507812-16.90625 2.328124-32.539063 5.460937-46.871094 18.59375 7.359375 38.6875 11.625 59.847656 12.640625zm0 53.988281v34.230469c-21.160156 1.011719-41.253906 5.28125-59.847656 12.636719-3.132813-14.328125-4.953125-29.960938-5.460937-46.867188zm67.371094 121.691406c10.578125-13.472656 18.96875-29.082031 25.117187-46.808593 7.453126 4.289062 14.53125 9.21875 21.203126 14.761719-13.085938 13.527343-28.804688 24.484374-46.320313 32.046874zm86.304687-141.449218h-48.640624c-.5625-20.046875-2.859376-38.515625-6.878907-55.378906 10.003907-5.390626 19.453125-11.789063 28.285157-19.136719 15.503906 21.191406 25.335937 46.78125 27.234374 74.515625zm-48.640624 19.757812h48.640624c-1.898437 27.734375-11.726562 53.324219-27.234374 74.515625-8.828126-7.347656-18.277344-13.746093-28.285157-19.136719 4.019531-16.863281 6.316407-35.332031 6.878907-55.378906zm8.65625-109.402344c-6.671876 5.542969-13.75 10.472657-21.199219 14.761719-6.148438-17.726562-14.539063-33.335937-25.117188-46.804687 17.515625 7.558594 33.230469 18.519531 46.316407 32.042968zm-162.140626-30.863281c-10.132812 13.183594-18.195312 28.382813-24.160156 45.570313-7.082031-4.078125-13.839844-8.730469-20.242187-13.9375 12.570312-13.183594 27.625-23.980469 44.402343-31.632813zm-83.636718 140.265625h46.910156c.5625 20.070313 2.867188 38.558594 6.894531 55.4375-9.585937 5.164063-18.675781 11.242188-27.210937 18.199219-15.136719-21.019531-24.722656-46.285156-26.59375-73.636719zm46.910156-19.757812h-46.910156c1.875-27.351563 11.457031-52.617188 26.59375-73.636719 8.535156 6.957031 17.625 13.035156 27.210937 18.199219-4.027343 16.878906-6.332031 35.367187-6.894531 55.4375zm-7.675781 108.632812c6.398437-5.207031 13.15625-9.859375 20.238281-13.9375 5.96875 17.1875 14.03125 32.390625 24.164062 45.574219-16.777343-7.65625-31.832031-18.449219-44.402343-31.636719zm0 0"/><path d="m256 492c-5.503906 0-10 4.492188-10 10s4.496094 10 10 10c5.507812 0 10-4.492188 10-10s-4.492188-10-10-10zm0 0"/></g></svg>