<?xml version="1.0" encoding="iso-8859-1"?>
<!-- Generator: Adobe Illustrator 19.0.0, SVG Export Plug-In . SVG Version: 6.00 Build 0)  -->
<svg version="1.1" id="Capa_1" xmlns="http://www.w3.org/2000/svg" xmlns:xlink="http://www.w3.org/1999/xlink" x="0px" y="0px"
	 viewBox="0 0 512 512" style="enable-background:new 0 0 512 512;" xml:space="preserve">
<path style="fill:#EE8700;" d="M445.513,373.383v1.301c0,31.225-25.309,56.534-56.524,56.534H154.583v-123.61l160.812-37.492
	c29.844-6.958,59.117-0.631,82.303,14.647C426.181,303.514,445.513,335.741,445.513,373.383z"/>
<path style="fill:#FF9811;" d="M445.513,373.383v1.301c0,31.225-25.309,56.534-56.524,56.534h-158.99v-71.909
	c0-20.898,14.399-39.039,34.75-43.785l126.071-29.391c2.293-0.541,4.595-0.991,6.878-1.372
	C426.181,303.514,445.513,335.741,445.513,373.383z"/>
<g>
	<path style="fill:#CC7400;" d="M477.091,431.029h-79.596c-15.071,0-27.402-12.331-27.402-27.402l0,0
		c0-15.071,12.331-27.402,27.402-27.402h79.596c15.071,0,27.402,12.331,27.402,27.402l0,0
		C504.493,418.698,492.163,431.029,477.091,431.029z"/>
	<path style="fill:#CC7400;" d="M300.208,403.628c0,7.529-3.083,14.386-8.049,19.352c-4.966,4.966-11.813,8.049-19.352,8.049
		h-114.58c-15.077,0-27.411-12.334-27.411-27.401c0-7.539,3.083-14.386,8.049-19.352c4.966-4.966,11.823-8.049,19.362-8.049h114.58
		C287.874,376.227,300.208,388.551,300.208,403.628z"/>
</g>
<g>
	<circle style="fill:#AA6100;" cx="364.082" cy="257.672" r="29.359"/>
	<circle style="fill:#AA6100;" cx="73.473" cy="277.665" r="31.315"/>
</g>
<path style="fill:#FF9811;" d="M199.334,350.698v33.158c0,26.049-21.314,47.364-47.364,47.364H48.353
	c-11.233,0-21.444-4.595-28.843-12.004c-2.953-2.953-5.466-6.357-7.418-10.101c-2.923-5.626-4.585-12.004-4.585-18.751
	c0-11.233,4.595-21.444,12.004-28.843c2.843-2.853,6.117-5.286,9.691-7.208c5.716-3.053,12.244-4.795,19.152-4.795
	c2.313,0,4.195-1.802,4.355-4.115c2.743-37.933,34.609-68.117,73.213-68.117c5.596,0,11.043,0.631,16.288,1.842
	C174.816,286.575,199.334,315.918,199.334,350.698z"/>
<path style="fill:#FFA733;" d="M199.334,350.698v33.158c0,26.049-21.314,47.364-47.364,47.364H80.93
	c-11.233,0-21.444-4.595-28.843-12.004c-2.953-2.953-5.466-6.357-7.418-10.101c-2.923-5.626-4.585-12.004-4.585-18.751
	c0-11.233,4.595-21.444,12.004-28.843c2.843-2.853,6.117-5.286,9.691-7.208c5.716-3.053,12.244-4.795,19.152-4.795
	c2.313,0,4.195-1.802,4.355-4.115c2.343-32.437,25.989-59.207,56.924-66.275C174.816,286.575,199.334,315.918,199.334,350.698z"/>
<g>
	<circle style="fill:#CC7400;" cx="122.769" cy="271.288" r="31.315"/>
	<path style="fill:#CC7400;" d="M24.416,404.068l-10.662,4.475l-1.662,0.571c-2.923-5.626-4.585-12.004-4.585-18.751
		c0-11.233,4.595-21.444,12.004-28.843c2.843-2.853,6.117-5.286,9.691-7.208c0.841,1.822,1.311,2.993,1.311,2.993l3.634,4.105
		C46.371,375.205,41.415,396.94,24.416,404.068z"/>
</g>
<path d="M117.554,325.037c-4.148,0-7.509,3.362-7.509,7.509c0,4.854-3.948,8.803-8.803,8.803c-4.854,0-8.803-3.948-8.803-8.803
	c0-4.147-3.361-7.509-7.509-7.509c-14.762,0-7.001,31.328,16.311,31.328C124.542,356.365,132.333,325.037,117.554,325.037z"/>
<path d="M477.09,368.968h-24.177c-1.602-39.925-23.867-74.604-56.344-93.566c5.088-9.439,5.974-21.084,1.532-31.696
	c-1.592-3.824-5.997-5.626-9.821-4.035c-3.824,1.602-5.626,5.997-4.035,9.831c8.495,20.222-15.045,38.811-32.807,26.25
	c-13.917-9.861-11.672-31.362,4.225-37.993c4.355-1.822,9.15-2.182,13.706-1.041c4.015,1.001,8.099-1.442,9.1-5.466
	c1.011-4.025-1.442-8.099-5.456-9.1c-23.488-5.952-47.409,12.425-45.702,38.574c-11.988,1.314-13.022,2.445-92.144,20.633
	c-4.035,0.941-6.547,4.986-5.606,9.02c0.941,4.035,4.986,6.547,9.02,5.606c79.569-18.221,80.533-19.563,93.045-20.593
	c10.73,20.028,36.93,25.648,55.062,11.673c29.273,16.038,49.556,46.563,51.208,81.903H397.5c-28.361,0-44.731,32.119-28.542,54.992
	h-67.637c16.214-22.955-0.208-54.992-28.512-54.992h-65.965c-1.036-10.496,4.586-35.343-13.335-62.481l15.818-3.684
	c4.035-0.941,6.547-4.976,5.606-9.01c-0.941-4.045-4.976-6.547-9.02-5.616l-23.006,5.366c-6.337-6.297-13.716-11.553-21.845-15.488
	c4.045-23.811-14.635-45.351-38.283-45.351c-0.25,0-0.511,0.01-0.771,0.01c-10.872,0.21-20.693,4.986-27.641,12.454
	c-8.392-5.363-18.384-7.132-27.651-5.496c-4.085,0.721-6.808,4.615-6.087,8.7c0.721,4.085,4.615,6.808,8.69,6.087
	c6.246-1.056,12.266,0.324,17.119,3.484c-2.873,7.568-3.207,15.719-1.291,23.196c-8.219,4.835-15.538,11.083-21.604,18.411
	c-11.738-5.326-17.33-19.496-11.643-31.726c1.752-3.754,0.12-8.219-3.634-9.971c-3.764-1.752-8.229-0.13-9.981,3.634
	c-8.821,18.902-0.991,41.059,16.719,50.597c-5.036,9.14-8.369,19.372-9.531,30.254C20.143,343.84,0,364.914,0,390.613
	c0,26.67,21.695,48.365,48.355,48.365h35.44c4.145,0,7.509-3.364,7.509-7.508s-3.364-7.509-7.509-7.509h-35.44
	c-15.457,0-23.518-10.15-24.829-11.124l3.795-1.592c21.072-8.837,27.799-35.34,13.632-53.149c1.232-0.208,3.475-0.822,7.401-0.822
	c6.197,0,11.403-4.866,11.843-11.083c4.253-58.936,79.799-83.765,117.473-36.011c19.127,24.226,13.025,48.622,14.156,58.787
	c0,5.953,0,9.667,0,15.137c0,20.508-15.602,37.39-35.25,39.585c-0.763,0,2.69-0.077-9.501,0.27c-11.807,0-21.687,0-33.248,0
	c-4.145,0-7.508,3.364-7.508,7.509c0,4.145,3.364,7.508,7.508,7.508c311.31,0,311.103-0.209,363.262-0.19
	c19.252,0,34.91-15.658,34.91-34.91C512,384.626,496.342,368.968,477.09,368.968z M16.249,399.605c0,0,0-0.001-0.001-0.002
	c-6.054-21.641,10.777-34.52,10.814-34.62c0.441,0.774,6.356,5.437,6.356,14.459C33.419,395.405,17.56,398.667,16.249,399.605z
	 M146.556,272.699c-14.882-3.958-31.546-3.688-47.394,1.922c-1.903-13.623,8.834-26.614,23.136-26.89l0.481-0.01
	c12.875,0,23.547,10.472,23.797,23.346C146.576,271.277,146.61,271.678,146.556,272.699z M286.353,418.447
	c-2.571,2.328-5.244,3.287-9.413,5.508c-77.216-0.163-86.915-0.184-87.086-0.184c10.462-10.001,16.989-24.087,16.989-39.665v-0.12
	h65.965C291.526,383.985,299.081,406.927,286.353,418.447z M477.09,423.77c-86.395,0-80.239,0.082-82.143-0.17
	c-9.771-1.251-17.35-9.611-17.35-19.722c0-10.972,8.93-19.893,19.903-19.893c25.646,0,54.915,0,79.59,0
	c10.972,0,19.893,8.92,19.893,19.893S488.063,423.77,477.09,423.77z"/>
<path d="M197.106,136.672c-0.176,0-0.354-0.006-0.532-0.019l-35.68-2.498c-2.857-0.2-5.352-2.008-6.431-4.661
	c-1.079-2.653-0.556-5.689,1.352-7.827l28.727-32.215l-20.418-1.43c-4.138-0.289-7.255-3.877-6.966-8.014
	c0.289-4.136,3.879-7.265,8.014-6.966l35.68,2.498c2.857,0.2,5.352,2.007,6.431,4.66s0.556,5.689-1.352,7.827l-28.727,32.215
	l20.418,1.43c4.138,0.29,7.255,3.878,6.966,8.015C204.311,133.646,201.014,136.672,197.106,136.672z"/>
<path d="M110.524,169.589c-2.59,0-5.02-1.341-6.394-3.575c-1.501-2.44-1.482-5.52,0.047-7.942l20.435-32.363l-17.398,1.66
	c-4.137,0.385-7.794-2.634-8.187-6.762c-0.394-4.129,2.633-7.794,6.762-8.188l32.628-3.113c2.839-0.267,5.608,1.101,7.109,3.542
	c1.501,2.44,1.482,5.52-0.047,7.942l-20.435,32.363l17.398-1.66c4.127-0.395,7.793,2.634,8.187,6.762
	c0.394,4.129-2.633,7.794-6.762,8.188l-32.628,3.113C111.001,169.578,110.762,169.589,110.524,169.589z"/>
<path d="M65.681,206.097c-2.023,0-3.999-0.818-5.438-2.331c-1.976-2.073-2.599-5.091-1.607-7.778l10.222-27.699l-11.565,3.638
	c-3.959,1.243-8.171-0.954-9.416-4.909c-1.244-3.955,0.953-8.171,4.909-9.416l26.16-8.23c2.731-0.86,5.715-0.09,7.691,1.984
	c1.976,2.073,2.599,5.091,1.607,7.778l-10.222,27.7l11.566-3.639c3.959-1.245,8.171,0.954,9.416,4.91s-0.953,8.171-4.909,9.416
	l-26.161,8.23C67.193,205.984,66.434,206.097,65.681,206.097z"/>
<g>
</g>
<g>
</g>
<g>
</g>
<g>
</g>
<g>
</g>
<g>
</g>
<g>
</g>
<g>
</g>
<g>
</g>
<g>
</g>
<g>
</g>
<g>
</g>
<g>
</g>
<g>
</g>
<g>
</g>
</svg>
